<?xml version="1.0" standalone="no"?>
<!DOCTYPE svg PUBLIC "-//W3C//DTD SVG 20010904//EN"
 "http://www.w3.org/TR/2001/REC-SVG-20010904/DTD/svg10.dtd">
<svg version="1.0" xmlns="http://www.w3.org/2000/svg"
 width="500.000000pt" height="500.000000pt" viewBox="0 0 500.000000 500.000000"
 preserveAspectRatio="xMidYMid meet">
<metadata>
Created by potrace 1.14, written by Peter Selinger 2001-2017
</metadata>
<g transform="translate(0.000000,500.000000) scale(0.100000,-0.100000)"
fill="#000000" stroke="none">
<path d="M1466 3832 c-3 -3 32 -41 78 -86 128 -124 221 -263 247 -370 5 -23
12 -50 15 -61 2 -11 5 -66 6 -122 1 -71 4 -100 12 -96 6 4 41 31 77 60 36 29
68 53 71 53 3 0 36 20 74 45 86 56 220 126 338 175 l90 38 -119 78 c-130 84
-323 186 -360 189 -5 0 -15 4 -21 8 -15 9 -238 66 -284 73 -19 3 -48 7 -65 11
-40 8 -153 12 -159 5z"/>
<path d="M3247 3524 c-2 -2 -100 -13 -173 -19 -27 -3 -60 -7 -74 -10 -14 -3
-38 -7 -55 -10 -16 -2 -57 -11 -90 -20 -33 -9 -64 -18 -70 -19 -5 -1 -37 -10
-70 -20 -33 -10 -64 -19 -70 -20 -11 -2 -67 -22 -100 -37 -11 -5 -45 -18 -75
-29 -83 -32 -235 -108 -330 -165 -47 -28 -96 -58 -109 -66 -14 -7 -32 -19 -40
-26 -117 -88 -198 -149 -207 -158 -7 -5 -31 -26 -55 -45 -78 -62 -279 -272
-279 -290 0 -3 46 -5 102 -5 94 1 148 -6 286 -34 50 -10 239 -70 290 -91 12
-6 32 -14 45 -19 36 -14 181 -81 197 -92 8 -5 24 -13 35 -18 11 -5 45 -20 75
-34 54 -25 109 -46 178 -69 31 -11 33 -10 110 65 77 75 117 113 165 154 22 19
114 84 260 183 130 89 168 122 161 144 -19 61 -48 95 -99 114 -46 17 -145 34
-160 28 -8 -3 -16 -2 -19 3 -3 4 -17 6 -33 5 -15 -2 -51 -5 -80 -7 -28 -3 -56
-8 -62 -11 -7 -5 -11 2 -11 18 0 26 59 81 112 104 82 35 227 23 334 -27 67
-31 96 -57 124 -111 l18 -35 59 61 c57 60 121 131 169 189 32 40 122 221 130
263 4 18 11 35 15 38 5 3 9 18 9 35 0 21 -5 29 -18 29 -10 0 -22 3 -26 7 -8 8
-2 7 -131 28 -80 13 -428 28 -438 19z m89 -172 c40 -26 36 -86 -9 -123 -31
-26 -62 -23 -97 9 -30 26 -63 99 -53 114 6 10 144 10 159 0z m-690 -304 c56
-57 104 -111 107 -121 9 -24 -26 -57 -59 -57 -20 0 -49 24 -124 101 -54 55
-100 111 -102 124 -7 36 9 55 46 55 28 0 46 -14 132 -102z m-227 -55 c19 -21
70 -75 113 -119 43 -45 78 -86 78 -91 0 -20 -42 -53 -66 -53 -27 0 -92 59
-197 178 -54 60 -62 102 -24 119 34 16 59 7 96 -34z m-102 -189 c126 -133 137
-148 122 -172 -7 -11 -27 -22 -43 -25 -28 -4 -40 4 -114 77 -45 44 -92 97
-105 116 -38 60 -28 99 25 96 25 -2 48 -20 115 -92z"/>
<path d="M3876 2655 c-14 -31 -26 -58 -26 -60 0 -11 -87 -145 -123 -190 -55
-68 -147 -154 -188 -175 -13 -7 -26 -16 -29 -20 -6 -7 -82 -55 -90 -55 -3 -1
-20 -9 -39 -19 -40 -21 -171 -67 -171 -60 0 3 -9 0 -19 -6 -32 -17 -91 -24
-201 -24 -125 0 -174 6 -299 40 -127 34 -167 51 -381 156 -102 49 -194 94
-205 98 -42 18 -135 50 -157 54 -13 3 -66 16 -118 30 -114 29 -204 40 -325 40
-97 -1 -215 -10 -255 -20 -14 -3 -42 -10 -64 -16 -42 -10 -41 -8 -21 -108 3
-14 9 -47 14 -75 12 -60 66 -224 79 -237 5 -5 20 -4 38 2 16 6 47 14 69 17 22
3 58 8 80 12 48 8 226 7 275 -3 20 -4 54 -8 75 -11 22 -2 41 -5 43 -6 1 -1 5
-2 10 -4 4 -1 14 -4 22 -7 8 -3 51 -15 95 -27 80 -22 253 -88 375 -144 110
-49 274 -107 350 -123 14 -3 43 -10 65 -16 63 -16 82 -18 225 -23 149 -4 243
9 375 51 198 63 342 159 434 289 41 58 88 201 105 320 7 45 17 375 12 375 -2
0 -15 -25 -30 -55z"/>
<path d="M2999 2372 c-9 -9 -43 -39 -76 -67 -33 -27 -70 -64 -81 -82 l-21 -31
52 -8 c66 -9 247 -12 270 -5 15 6 12 15 -27 74 -24 36 -53 82 -65 102 -23 39
-29 41 -52 17z"/>
<path d="M1439 1914 c-77 -15 -119 -30 -119 -43 0 -26 119 -204 187 -281 75
-84 165 -170 223 -210 19 -13 40 -29 46 -35 19 -17 105 -67 179 -103 242 -118
482 -164 740 -139 103 10 240 47 343 93 29 13 57 24 62 24 6 0 10 4 10 9 0 5
13 12 30 16 16 4 32 11 36 16 3 5 22 18 42 28 33 17 145 96 178 126 7 5 43 37
81 70 80 69 180 189 213 255 l22 45 -23 -21 c-60 -54 -222 -137 -309 -159 -14
-3 -47 -12 -75 -20 -27 -7 -66 -17 -85 -21 -51 -11 -355 -14 -393 -4 -17 5
-48 11 -67 14 -76 11 -257 68 -355 112 -22 10 -42 18 -45 19 -3 0 -9 3 -15 7
-13 7 -251 109 -267 113 -5 2 -10 4 -13 5 -3 1 -8 3 -12 5 -5 1 -15 5 -23 8
-44 19 -234 66 -290 73 -102 12 -232 11 -301 -2z"/>
</g>
</svg>
